<svg width="250" height="125" viewBox="0 0 207 60" fill="none" xmlns="http://www.w3.org/2000/svg">
<path d="M78.2893 22.7089H71.1231L69.9333 26.1973H65.0657L72.0696 7.21367H77.3969L84.4009 26.1973H79.4792L78.2893 22.7089ZM77.0995 19.1934L74.7198 12.1624L72.313 19.1934H77.0995Z" fill="#0049C6"/>
<path d="M90.6817 13.9472C91.2586 13.0278 91.9978 12.2976 92.8992 11.7568C93.8186 11.2159 94.8102 10.9455 95.8738 10.9455V15.8942H94.5488C93.3229 15.8942 92.3674 16.1556 91.6823 16.6785C91.0153 17.2013 90.6817 18.0847 90.6817 19.3286V26.1973H86.0575V11.1078H90.6817V13.9472Z" fill="#0049C6"/>
<path d="M107.059 22.2221V26.1973H104.977C103.21 26.1973 101.831 25.7647 100.839 24.8993C99.8656 24.0159 99.3788 22.5647 99.3788 20.5455V15.0018H97.3507V11.1078H99.3788V7.40296H104.003V11.1078H107.032V15.0018H104.003V20.6266C104.003 21.2216 104.12 21.6362 104.355 21.8706C104.607 22.1049 105.022 22.2221 105.599 22.2221H107.059Z" fill="#0049C6"/>
<path d="M122.679 6.88916C125.113 6.88916 127.123 7.52916 128.71 8.80916C130.314 10.0892 131.351 11.8199 131.82 14.0013H126.925C126.565 13.1179 126.006 12.4238 125.248 11.919C124.509 11.4142 123.626 11.1618 122.598 11.1618C121.246 11.1618 120.156 11.6576 119.326 12.6492C118.497 13.6407 118.082 14.9658 118.082 16.6244C118.082 18.283 118.497 19.608 119.326 20.5996C120.156 21.5731 121.246 22.0599 122.598 22.0599C123.626 22.0599 124.509 21.8075 125.248 21.3027C126.006 20.7979 126.565 20.1128 126.925 19.2475H131.82C131.351 21.4109 130.314 23.1416 128.71 24.4396C127.123 25.7196 125.113 26.3596 122.679 26.3596C120.823 26.3596 119.191 25.9539 117.785 25.1427C116.379 24.3134 115.288 23.1596 114.513 21.6813C113.756 20.203 113.377 18.5173 113.377 16.6244C113.377 14.7314 113.756 13.0458 114.513 11.5675C115.288 10.0892 116.379 8.94437 117.785 8.1331C119.191 7.30381 120.823 6.88916 122.679 6.88916Z" fill="#0049C6"/>
<path d="M148.603 18.2469C148.603 18.6255 148.558 19.0401 148.468 19.4909H138.002C138.056 20.6266 138.345 21.4469 138.868 21.9517C139.391 22.4385 140.058 22.6818 140.869 22.6818C141.554 22.6818 142.122 22.5106 142.573 22.168C143.023 21.8255 143.321 21.3838 143.465 20.843H148.36C148.161 21.9066 147.729 22.8621 147.062 23.7094C146.394 24.5387 145.547 25.1968 144.52 25.6835C143.492 26.1523 142.347 26.3866 141.085 26.3866C139.607 26.3866 138.291 26.0801 137.137 25.4672C136.001 24.8362 135.109 23.9348 134.46 22.763C133.811 21.5911 133.486 20.221 133.486 18.6525C133.486 17.0661 133.802 15.6959 134.433 14.5421C135.082 13.3703 135.983 12.4779 137.137 11.8649C138.291 11.2339 139.607 10.9185 141.085 10.9185C142.582 10.9185 143.898 11.2249 145.033 11.8379C146.169 12.4509 147.043 13.3162 147.656 14.4339C148.287 15.5337 148.603 16.8047 148.603 18.2469ZM143.925 17.5438C143.943 16.5523 143.672 15.8131 143.113 15.3263C142.573 14.8216 141.896 14.5692 141.085 14.5692C140.238 14.5692 139.535 14.8216 138.976 15.3263C138.417 15.8311 138.102 16.5703 138.029 17.5438H143.925Z" fill="#0049C6"/>
<path d="M160.446 10.9455C162.176 10.9455 163.546 11.5224 164.556 12.6762C165.584 13.83 166.097 15.4165 166.097 17.4356V26.1973H161.473V17.9765C161.473 16.9669 161.203 16.1827 160.662 15.6238C160.139 15.0469 159.436 14.7585 158.553 14.7585C157.615 14.7585 156.867 15.0559 156.308 15.6509C155.767 16.2458 155.497 17.0931 155.497 18.1928V26.1973H150.873V11.1078H155.497V13.8661C155.93 12.9647 156.57 12.2525 157.417 11.7297C158.282 11.2069 159.292 10.9455 160.446 10.9455Z" fill="#0049C6"/>
<path d="M177.552 22.2221V26.1973H175.47C173.703 26.1973 172.324 25.7647 171.332 24.8993C170.359 24.0159 169.872 22.5647 169.872 20.5455V15.0018H167.844V11.1078H169.872V7.40296H174.496V11.1078H177.525V15.0018H174.496V20.6266C174.496 21.2216 174.613 21.6362 174.848 21.8706C175.1 22.1049 175.515 22.2221 176.092 22.2221H177.552Z" fill="#0049C6"/>
<path d="M194.342 18.2469C194.342 18.6255 194.297 19.0401 194.207 19.4909H183.742C183.796 20.6266 184.084 21.4469 184.607 21.9517C185.13 22.4385 185.797 22.6818 186.608 22.6818C187.293 22.6818 187.861 22.5106 188.312 22.168C188.763 21.8255 189.06 21.3838 189.204 20.843H194.099C193.901 21.9066 193.468 22.8621 192.801 23.7094C192.134 24.5387 191.287 25.1968 190.259 25.6835C189.231 26.1523 188.087 26.3866 186.825 26.3866C185.346 26.3866 184.03 26.0801 182.876 25.4672C181.741 24.8362 180.848 23.9348 180.199 22.763C179.55 21.5911 179.226 20.221 179.226 18.6525C179.226 17.0661 179.541 15.6959 180.172 14.5421C180.821 13.3703 181.723 12.4779 182.876 11.8649C184.03 11.2339 185.346 10.9185 186.825 10.9185C188.321 10.9185 189.637 11.2249 190.773 11.8379C191.909 12.4509 192.783 13.3162 193.396 14.4339C194.027 15.5337 194.342 16.8047 194.342 18.2469ZM189.664 17.5438C189.682 16.5523 189.412 15.8131 188.853 15.3263C188.312 14.8216 187.636 14.5692 186.825 14.5692C185.977 14.5692 185.274 14.8216 184.715 15.3263C184.156 15.8311 183.841 16.5703 183.769 17.5438H189.664Z" fill="#0049C6"/>
<path d="M201.236 13.9472C201.813 13.0278 202.552 12.2976 203.454 11.7568C204.373 11.2159 205.365 10.9455 206.428 10.9455V15.8942H205.103C203.877 15.8942 202.922 16.1556 202.237 16.6785C201.57 17.2013 201.236 18.0847 201.236 19.3286V26.1973H196.612V11.1078H201.236V13.9472Z" fill="#0049C6"/>
<path d="M74.8677 33.3867C77.1933 33.3867 79.1133 33.9636 80.6277 35.1174C82.1421 36.2532 83.1877 37.8126 83.7646 39.7957H81.1685C80.6818 38.5338 79.8976 37.5332 78.8159 36.794C77.7342 36.0369 76.4091 35.6583 74.8406 35.6583C73.5967 35.6583 72.479 35.9647 71.4874 36.5777C70.5139 37.1726 69.7387 38.038 69.1618 39.1738C68.6029 40.2915 68.3235 41.6076 68.3235 43.1219C68.3235 44.6183 68.6029 45.9253 69.1618 47.0431C69.7387 48.1608 70.5139 49.0262 71.4874 49.6391C72.479 50.234 73.5967 50.5315 74.8406 50.5315C76.4091 50.5315 77.7342 50.1619 78.8159 49.4228C79.8976 48.6656 80.6818 47.656 81.1685 46.394H83.7646C83.1877 48.3771 82.1421 49.9456 80.6277 51.0994C79.1133 52.2352 77.1933 52.8031 74.8677 52.8031C73.0829 52.8031 71.5054 52.3974 70.1353 51.5862C68.7652 50.7569 67.6925 49.6121 66.9173 48.1518C66.1601 46.6735 65.7815 44.9969 65.7815 43.1219C65.7815 41.229 66.1601 39.5433 66.9173 38.065C67.6925 36.5867 68.7652 35.4419 70.1353 34.6307C71.5054 33.8014 73.0829 33.3867 74.8677 33.3867Z" fill="#9085DE"/>
<path d="M100.886 37.6053C102.329 37.6053 103.546 37.9659 104.537 38.687C105.547 39.4081 106.25 40.3726 106.646 41.5805V37.7946H109.107V52.6408H106.646V48.8549C106.25 50.0628 105.547 51.0273 104.537 51.7484C103.546 52.4695 102.329 52.8301 100.886 52.8301C99.5704 52.8301 98.3986 52.5236 97.371 51.9107C96.3434 51.2977 95.5321 50.4233 94.9372 49.2876C94.3603 48.1338 94.0718 46.7816 94.0718 45.2312C94.0718 43.6808 94.3603 42.3287 94.9372 41.1749C95.5321 40.0211 96.3434 39.1377 97.371 38.5247C98.3986 37.9118 99.5704 37.6053 100.886 37.6053ZM101.59 39.7957C100.075 39.7957 98.8583 40.2825 97.9389 41.256C97.0375 42.2115 96.5868 43.5366 96.5868 45.2312C96.5868 46.9259 97.0375 48.26 97.9389 49.2335C98.8583 50.189 100.075 50.6667 101.59 50.6667C102.563 50.6667 103.428 50.4414 104.186 49.9907C104.961 49.54 105.565 48.909 105.997 48.0977C106.43 47.2684 106.646 46.3129 106.646 45.2312C106.646 44.1495 106.43 43.194 105.997 42.3647C105.565 41.5354 104.961 40.9045 104.186 40.4718C103.428 40.0211 102.563 39.7957 101.59 39.7957Z" fill="#9085DE"/>
<path d="M128.586 37.5512C130.316 37.5512 131.713 38.1101 132.777 39.2278C133.841 40.3276 134.373 41.9231 134.373 44.0143V52.6408H131.912V44.2307C131.912 42.7524 131.533 41.6166 130.776 40.8233C130.019 40.0301 128.991 39.6335 127.693 39.6335C126.341 39.6335 125.259 40.0752 124.448 40.9585C123.637 41.8239 123.231 43.0949 123.231 44.7715V52.6408H120.77V37.7946H123.231V41.3101C123.61 40.1022 124.277 39.1738 125.232 38.5247C126.206 37.8757 127.324 37.5512 128.586 37.5512Z" fill="#9085DE"/>
<path d="M151.654 50.0177L156.251 37.7946H158.901L153.087 52.6408H150.166L144.352 37.7946H147.002L151.654 50.0177Z" fill="#9085DE"/>
<path d="M175.147 37.6053C176.589 37.6053 177.806 37.9659 178.798 38.687C179.807 39.4081 180.51 40.3726 180.907 41.5805V37.7946H183.368V52.6408H180.907V48.8549C180.51 50.0628 179.807 51.0273 178.798 51.7484C177.806 52.4695 176.589 52.8301 175.147 52.8301C173.831 52.8301 172.659 52.5236 171.632 51.9107C170.604 51.2977 169.793 50.4233 169.198 49.2876C168.621 48.1338 168.332 46.7816 168.332 45.2312C168.332 43.6808 168.621 42.3287 169.198 41.1749C169.793 40.0211 170.604 39.1377 171.632 38.5247C172.659 37.9118 173.831 37.6053 175.147 37.6053ZM175.85 39.7957C174.336 39.7957 173.119 40.2825 172.199 41.256C171.298 42.2115 170.847 43.5366 170.847 45.2312C170.847 46.9259 171.298 48.26 172.199 49.2335C173.119 50.189 174.336 50.6667 175.85 50.6667C176.824 50.6667 177.689 50.4414 178.446 49.9907C179.221 49.54 179.825 48.909 180.258 48.0977C180.691 47.2684 180.907 46.3129 180.907 45.2312C180.907 44.1495 180.691 43.194 180.258 42.3647C179.825 41.5354 179.221 40.9045 178.446 40.4718C177.689 40.0211 176.824 39.7957 175.85 39.7957Z" fill="#9085DE"/>
<path d="M199.682 37.6053C201.359 37.6053 202.702 38.047 203.711 38.9304C204.739 39.7957 205.361 40.9676 205.577 42.4459H203.225C203.117 41.5625 202.747 40.8414 202.116 40.2825C201.503 39.7056 200.674 39.4171 199.628 39.4171C198.745 39.4171 198.051 39.6335 197.546 40.0662C197.059 40.4808 196.816 41.0487 196.816 41.7698C196.816 42.3107 196.978 42.7524 197.302 43.0949C197.645 43.4194 198.06 43.6718 198.546 43.8521C199.051 44.0143 199.736 44.1946 200.602 44.3929C201.701 44.6453 202.585 44.9067 203.252 45.1771C203.937 45.4295 204.514 45.8442 204.982 46.4211C205.469 46.998 205.713 47.7732 205.713 48.7467C205.713 49.9546 205.253 50.9371 204.333 51.6943C203.432 52.4515 202.224 52.8301 200.71 52.8301C198.943 52.8301 197.501 52.4064 196.383 51.5591C195.265 50.7118 194.607 49.5309 194.409 48.0166H196.789C196.879 48.918 197.266 49.6481 197.951 50.207C198.655 50.7659 199.574 51.0453 200.71 51.0453C201.557 51.0453 202.215 50.829 202.684 50.3963C203.171 49.9636 203.414 49.3957 203.414 48.6926C203.414 48.1157 203.243 47.656 202.9 47.3135C202.558 46.9709 202.134 46.7095 201.629 46.5293C201.124 46.349 200.43 46.1597 199.547 45.9614C198.447 45.709 197.564 45.4566 196.897 45.2042C196.248 44.9518 195.689 44.5552 195.22 44.0143C194.769 43.4555 194.544 42.7073 194.544 41.7698C194.544 40.5259 195.004 39.5253 195.923 38.7681C196.843 37.9929 198.096 37.6053 199.682 37.6053Z" fill="#9085DE"/>
<g clip-path="url(#clip0_1_142)">
<path d="M38.1458 42.4601C35.9088 43.8461 33.3435 44.6079 30.7148 44.6668C28.086 44.7257 25.4893 44.0795 23.1929 42.7951C20.8965 41.5107 18.9837 39.6345 17.6521 37.3606C16.3205 35.0866 15.6184 32.4973 15.6184 29.8601C15.6184 27.223 16.3205 24.6337 17.6521 22.3597C18.9837 20.0858 20.8965 18.2096 23.1929 16.9252C25.4893 15.6408 28.086 14.9946 30.7148 15.0535C33.3435 15.1124 35.9088 15.8742 38.1458 17.2602L48.8927 6.48143C44.5086 2.98796 39.2311 0.805353 33.6661 0.184199C28.1011 -0.436956 22.4743 0.528529 17.4316 2.9698C12.389 5.41107 8.13506 9.22914 5.15819 13.9856C2.18132 18.7421 0.602234 24.2442 0.602234 29.8601C0.602234 35.4761 2.18132 40.9781 5.15819 45.7346C8.13506 50.4911 12.389 54.3092 17.4316 56.7505C22.4743 59.1918 28.1011 60.1572 33.6661 59.5361C39.2311 58.9149 44.5086 56.7323 48.8927 53.2389L38.1458 42.4601Z" fill="url(#paint0_linear_1_142)"/>
<g style="mix-blend-mode:multiply" opacity="0.15">
<path d="M30.3859 52.3687C35.1628 52.3731 39.8153 50.8421 43.6611 48.0003L38.1395 42.4603C35.9025 43.8463 33.3372 44.608 30.7085 44.6669C28.0798 44.7258 25.483 44.0797 23.1866 42.7952C20.8902 41.5108 18.9774 39.6347 17.6458 37.3607C16.3142 35.0868 15.6121 32.4975 15.6121 29.8603C15.6121 27.2232 16.3142 24.6338 17.6458 22.3599C18.9774 20.0859 20.8902 18.2098 23.1866 16.9254C25.483 15.6409 28.0798 14.9948 30.7085 15.0537C33.3372 15.1126 35.9025 15.8743 38.1395 17.2603L43.6611 11.7203C40.8027 9.61501 37.4876 8.2191 33.9874 7.64703C30.4873 7.07496 26.9018 7.34302 23.5249 8.42923C20.148 9.51544 17.0758 11.3889 14.5603 13.896C12.0447 16.403 10.1574 19.4724 9.05307 22.8523C7.94871 26.2323 7.65874 29.8266 8.20695 33.3407C8.75516 36.8547 10.1259 40.1885 12.2069 43.0685C14.2879 45.9486 17.0198 48.2931 20.1786 49.9096C23.3375 51.5262 26.8334 52.3689 30.3797 52.3687H30.3859Z" fill="#6C5DD3"/>
</g>
<g style="mix-blend-mode:multiply" opacity="0.23">
<path d="M14.5117 4.60498C10.7137 7.01112 7.50529 10.2448 5.12481 14.0657C4.10894 16.9215 3.53321 19.1663 3.53321 19.1663L1.35754 30.805L8.65845 44.5295L24.3575 48.741L26.5686 44.2261L26.2724 44.0859C24.7256 43.6369 23.2627 42.9365 21.9419 42.0126C21.9419 42.0126 -3.97837 26.1709 14.5117 4.60498Z" fill="#6C5DD3"/>
</g>
<path d="M38.1458 42.4603C35.8888 43.86 33.2292 44.791 30.386 44.6696C8.75238 43.7491 -0.471784 17.388 14.5118 4.60498C11.0908 6.76866 8.14531 9.6089 5.8552 12.9523C3.56508 16.2957 1.97835 20.0722 1.19187 24.0511C0.405385 28.03 0.435651 32.128 1.28082 36.0948C2.12598 40.0616 3.76832 43.814 6.10756 47.1231C8.44681 50.4321 11.4339 53.2282 14.8865 55.3408C18.3391 57.4535 22.1847 58.8382 26.1886 59.4106C30.1925 59.9829 34.2708 59.7309 38.1743 58.6698C42.0779 57.6087 45.7249 55.7609 48.8928 53.2391L38.1458 42.4603Z" fill="url(#paint1_linear_1_142)"/>
<g style="mix-blend-mode:multiply" opacity="0.15">
<path d="M43.7758 48.1068C24.3366 61.2873 -5.89958 43.7488 3.94621 16.1304C0.812647 22.1978 -0.150869 29.1598 1.21652 35.8539C2.58391 42.548 6.19944 48.5691 11.4595 52.9118C16.7195 57.2546 23.3057 59.6562 30.1184 59.7157C36.9311 59.7753 43.558 57.489 48.8927 53.2388L43.7758 48.1068Z" fill="#6C5DD3"/>
</g>
</g>
<defs>
<linearGradient id="paint0_linear_1_142" x1="24.7538" y1="-4.42495" x2="24.7538" y2="77.8969" gradientUnits="userSpaceOnUse">
<stop offset="0.07" stop-color="#CFC8FF"/>
<stop offset="0.69" stop-color="#0049C6"/>
</linearGradient>
<linearGradient id="paint1_linear_1_142" x1="24.7539" y1="0.970917" x2="24.7539" y2="83.2928" gradientUnits="userSpaceOnUse">
<stop offset="0.28" stop-color="#9085DE"/>
<stop offset="1" stop-color="#0049C6"/>
</linearGradient>
<clipPath id="clip0_1_142">
<rect width="48.7324" height="60" fill="white" transform="translate(0.333252)"/>
</clipPath>
</defs>
</svg>
